<?xml version="1.0" standalone="no"?>
<!DOCTYPE svg PUBLIC "-//W3C//DTD SVG 20010904//EN"
 "http://www.w3.org/TR/2001/REC-SVG-20010904/DTD/svg10.dtd">
<svg version="1.0" xmlns="http://www.w3.org/2000/svg"
 width="1441.000000pt" height="1441.000000pt" viewBox="0 0 1441.000000 1441.000000"
 preserveAspectRatio="xMidYMid meet">
<metadata>
Created by potrace 1.11, written by Peter Selinger 2001-2013
</metadata>
<g transform="translate(0.000000,1441.000000) scale(0.100000,-0.100000)"
fill="#000000" stroke="none">
<path d="M2277 14403 c-1 -1 -42 -4 -91 -8 -50 -3 -92 -8 -95 -10 -4 -2 -28
-6 -56 -9 -27 -3 -101 -17 -164 -31 -766 -174 -1416 -732 -1700 -1463 -63
-162 -126 -396 -137 -507 -3 -27 -7 -56 -10 -64 -16 -47 -18 -673 -18 -5096 0
-4377 2 -5068 18 -5116 3 -8 7 -36 10 -64 5 -42 16 -99 40 -205 69 -299 236
-642 445 -910 85 -109 272 -298 381 -386 267 -213 602 -380 925 -459 61 -15
119 -28 130 -30 11 -1 36 -5 55 -9 69 -12 96 -16 175 -23 106 -10 9934 -9
10050 0 50 5 108 12 130 17 22 4 62 11 89 15 27 3 52 8 56 10 4 2 18 6 33 9
15 4 38 8 51 11 43 9 214 64 283 90 183 72 478 238 602 340 230 190 381 353
529 572 136 201 290 549 326 739 2 11 9 39 16 64 13 48 14 53 25 118 10 61 13
87 22 182 10 109 10 9948 0 10056 -4 45 -9 90 -11 100 -10 58 -16 93 -22 129
-9 62 -51 216 -85 318 -228 671 -773 1232 -1424 1467 -49 18 -99 36 -110 41
-11 4 -40 14 -65 20 -25 7 -49 14 -55 15 -46 13 -245 53 -291 59 -21 3 -66 8
-99 12 -49 5 -9953 12 -9958 6z"/>
</g>
</svg>
