<svg xmlns="http://www.w3.org/2000/svg" viewBox="0 0 931.6 470.6"><defs><style>.cls-1{fill:#e8e9f0;}</style></defs><title>Dot Grid</title><g id="Layer_2" data-name="Layer 2"><g id="Homepage"><rect class="cls-1" x="230" y="461" width="9.6" height="9.6"/><rect class="cls-1" x="306.89" y="461" width="9.6" height="9.6"/><rect class="cls-1" x="383.78" y="461" width="9.6" height="9.6"/><rect class="cls-1" x="460.67" y="461" width="9.6" height="9.6"/><rect class="cls-1" x="537.56" y="461" width="9.6" height="9.6"/><rect class="cls-1" x="614.44" y="461" width="9.6" height="9.6"/><rect class="cls-1" x="691.33" y="461" width="9.6" height="9.6"/><rect class="cls-1" x="768.22" y="461" width="9.6" height="9.6"/><rect class="cls-1" x="845.11" y="461" width="9.6" height="9.6"/><rect class="cls-1" x="922" y="461" width="9.6" height="9.6"/><rect class="cls-1" x="230" y="384" width="9.6" height="9.6"/><rect class="cls-1" x="306.89" y="384" width="9.6" height="9.6"/><rect class="cls-1" x="383.78" y="384" width="9.6" height="9.6"/><rect class="cls-1" x="460.67" y="384" width="9.6" height="9.6"/><rect class="cls-1" x="537.56" y="384" width="9.6" height="9.6"/><rect class="cls-1" x="614.44" y="384" width="9.6" height="9.6"/><rect class="cls-1" x="691.33" y="384" width="9.6" height="9.6"/><rect class="cls-1" x="768.22" y="384" width="9.6" height="9.6"/><rect class="cls-1" x="845.11" y="384" width="9.6" height="9.6"/><rect class="cls-1" x="922" y="384" width="9.6" height="9.6"/><rect class="cls-1" x="230" y="308" width="9.6" height="9.6"/><rect class="cls-1" x="306.89" y="308" width="9.6" height="9.6"/><rect class="cls-1" x="383.78" y="308" width="9.6" height="9.6"/><rect class="cls-1" x="460.67" y="308" width="9.6" height="9.6"/><rect class="cls-1" x="537.56" y="308" width="9.6" height="9.6"/><rect class="cls-1" x="614.44" y="308" width="9.6" height="9.6"/><rect class="cls-1" x="691.33" y="308" width="9.6" height="9.6"/><rect class="cls-1" x="768.22" y="308" width="9.6" height="9.6"/><rect class="cls-1" x="845.11" y="308" width="9.6" height="9.6"/><rect class="cls-1" x="922" y="308" width="9.6" height="9.6"/><rect class="cls-1" x="230" y="232" width="9.6" height="9.6"/><rect class="cls-1" x="306.89" y="232" width="9.6" height="9.6"/><rect class="cls-1" x="383.78" y="232" width="9.6" height="9.6"/><rect class="cls-1" x="460.67" y="232" width="9.6" height="9.6"/><rect class="cls-1" x="537.56" y="232" width="9.6" height="9.6"/><rect class="cls-1" x="614.44" y="232" width="9.6" height="9.6"/><rect class="cls-1" x="691.33" y="232" width="9.6" height="9.6"/><rect class="cls-1" x="768.22" y="232" width="9.6" height="9.6"/><rect class="cls-1" x="845.11" y="232" width="9.6" height="9.6"/><rect class="cls-1" x="922" y="232" width="9.6" height="9.6"/><rect class="cls-1" x="230" y="154" width="9.6" height="9.6"/><rect class="cls-1" x="306.89" y="154" width="9.6" height="9.6"/><rect class="cls-1" x="383.78" y="154" width="9.6" height="9.6"/><rect class="cls-1" x="460.67" y="154" width="9.6" height="9.6"/><rect class="cls-1" x="537.56" y="154" width="9.6" height="9.6"/><rect class="cls-1" x="614.44" y="154" width="9.6" height="9.6"/><rect class="cls-1" x="691.33" y="154" width="9.6" height="9.6"/><rect class="cls-1" x="768.22" y="154" width="9.6" height="9.6"/><rect class="cls-1" x="845.11" y="154" width="9.6" height="9.6"/><rect class="cls-1" x="922" y="154" width="9.6" height="9.6"/><rect class="cls-1" x="230" y="77" width="9.6" height="9.6"/><rect class="cls-1" x="306.89" y="77" width="9.6" height="9.6"/><rect class="cls-1" x="383.78" y="77" width="9.6" height="9.6"/><rect class="cls-1" x="460.67" y="77" width="9.6" height="9.6"/><rect class="cls-1" x="537.56" y="77" width="9.6" height="9.6"/><rect class="cls-1" x="614.44" y="77" width="9.6" height="9.6"/><rect class="cls-1" x="691.33" y="77" width="9.6" height="9.6"/><rect class="cls-1" x="768.22" y="77" width="9.6" height="9.6"/><rect class="cls-1" x="845.11" y="77" width="9.6" height="9.6"/><rect class="cls-1" x="922" y="77" width="9.6" height="9.6"/><rect class="cls-1" x="230" width="9.6" height="9.6"/><rect class="cls-1" x="306.89" width="9.6" height="9.6"/><rect class="cls-1" x="383.78" width="9.6" height="9.6"/><rect class="cls-1" y="461" width="9.6" height="9.6"/><rect class="cls-1" x="76.89" y="461" width="9.6" height="9.6"/><rect class="cls-1" x="153.78" y="461" width="9.6" height="9.6"/><rect class="cls-1" y="384" width="9.6" height="9.6"/><rect class="cls-1" x="76.89" y="384" width="9.6" height="9.6"/><rect class="cls-1" x="153.78" y="384" width="9.6" height="9.6"/><rect class="cls-1" y="308" width="9.6" height="9.6"/><rect class="cls-1" x="76.89" y="308" width="9.6" height="9.6"/><rect class="cls-1" x="153.78" y="308" width="9.6" height="9.6"/><rect class="cls-1" y="232" width="9.6" height="9.6"/><rect class="cls-1" x="76.89" y="232" width="9.6" height="9.6"/><rect class="cls-1" x="153.78" y="232" width="9.6" height="9.6"/><rect class="cls-1" y="154" width="9.6" height="9.6"/><rect class="cls-1" x="76.89" y="154" width="9.6" height="9.6"/><rect class="cls-1" x="153.78" y="154" width="9.6" height="9.6"/><rect class="cls-1" y="77" width="9.6" height="9.6"/><rect class="cls-1" x="76.89" y="77" width="9.6" height="9.6"/><rect class="cls-1" x="153.78" y="77" width="9.6" height="9.6"/><rect class="cls-1" width="9.6" height="9.6"/><rect class="cls-1" x="76.89" width="9.6" height="9.6"/><rect class="cls-1" x="153.78" width="9.6" height="9.6"/><rect class="cls-1" x="460.67" width="9.6" height="9.6"/><rect class="cls-1" x="537.56" width="9.6" height="9.6"/><rect class="cls-1" x="614.44" width="9.6" height="9.6"/><rect class="cls-1" x="691.33" width="9.6" height="9.6"/><rect class="cls-1" x="768.22" width="9.6" height="9.6"/><rect class="cls-1" x="845.11" width="9.6" height="9.6"/><rect class="cls-1" x="922" width="9.6" height="9.6"/></g></g></svg>