<svg xmlns="http://www.w3.org/2000/svg" viewBox="0 0 855.67 867.66"><defs><style>.cls-1{opacity:0.5;}.cls-2{fill:#71c8f0;}</style></defs><g id="Layer_2" data-name="Layer 2"><g id="Homepage"><g class="cls-1"><path class="cls-2" d="M547.54,502.25c7.93,2,15.83,4,23.81,5.7a11.05,11.05,0,0,0,13.43-7.8c2.91-9.74,7.79-18.89,12.18-29.06-9.58-8.71-2.42-17.25,3.27-25.18l-11.91-10L550.4,468.54c-5.1,1.88-10.6,2.27-11.55,4.55-4.22,10.13,1.8,18.88,5.79,27.72C545,501.58,546.5,502,547.54,502.25Z"/><path class="cls-2" d="M690.88,503.68c8.63,3.67,9.39,7.87,4.39,15.92-.95,1.53-1.13,3.54-2.22,7.19l12.57-3c11.51,15.58,14.44-4.1,20.77-5.85l14.75,11.54,3.05-3.06c-9.19-7.86-5-20.91-14-29.79-8.17-8-27.54-17.38-38.91-14.3q-1.28,5.22-2.56,10.44c-3.9-4.81-4.89-11.72-8.41-13.44-3.91-1.91-10.13.92-14.75,1.59l10.12,19.43C680.72,501.37,686.17,501.67,690.88,503.68Z"/><path class="cls-2" d="M469.18,474.77c5.89,7.7,12,15.34,17,23.61,7.29,12,15.94,21.94,29.35,27l.16,0,5.43-20.3-.68-1a4.88,4.88,0,0,0-7.71-.42l0,0c-5.21-1.28-1-9.12-7.2-9.27.38-9.87-8.14-10.3-14.16-13.42-1.71-.88-3.65-1.79-4.78-3.23-6.89-8.84-14.7-15.79-28.56-14,1.84,2.37,3.3,4.74,5.23,6.6C464.94,472.14,467.75,472.9,469.18,474.77Z"/><path class="cls-2" d="M217.76,563.42c-.18.14,1.18,1.83,1.46,2.89,1.48,5.61,3.47,11.19,4.1,16.92.8,7.28,11.41,22,20.27,24.37-8-23-7.23-47.31-20.9-69.58C218.52,547.34,225.59,556.88,217.76,563.42Z"/><path class="cls-2" d="M633.94,283.1,646.54,267c.56.33,2.72,2.36,3.47,1.93,4.59-2.66,10.09-5,12.94-9.11,3.26-4.69-7-22.31-13.52-24.44.07,1.53-.36,3.22.28,4.17,4.5,6.71,2.84,12-3.39,16.35-1.9,1.33-4,2.35-6,3.57-3.22,2-6.4,4-9.6,6,.48,1,1,1.93,1.43,2.89l8.19-1.82c.07.72.15,1.45.22,2.18l-13.29,2.58C629.78,275.71,631.86,279.39,633.94,283.1Z"/><path class="cls-2" d="M522.49,525.38c7.76,1.86,10.52,7.37,18.4,8.57,14.17,2.14,40.6,5.43,40.6,5.43,3-1,1.84-2.59.54-3.19a54.25,54.25,0,0,0-5.9-2.49c-2.07-.68-4.64-.23-6.45-1.24-2.64-1.48-4.6-5.14-7.19-5.52-5.38-.78-11,.31-16.47,0a102.77,102.77,0,0,1-14-2.21c-5.53-1.09-16.12.43-16.12.42C516.41,526.49,521.71,525.19,522.49,525.38Z"/><path class="cls-2" d="M606.74,483.85a1.9,1.9,0,0,0-3.34.79c-2.56,11.72-5.22,21.49,3.22,31.69q.69-8.12,1.4-16.24l1.78-.37c2.1,4,4.19,7.91,6.51,12.27,10.78-6.73,1.38-12.68.18-19.22l11.21-7.28C621.37,480.75,612.45,491.33,606.74,483.85Z"/><path class="cls-2" d="M601.82,362.84c-3.2,10-1.38,19.17,2.67,28.87a3,3,0,0,0,5.77-.79c1-7.74,2-14.7,2.59-21.69.22-2.32-.86-6.35-2.33-6.89C607.9,361.38,602.18,361.73,601.82,362.84Z"/><path class="cls-2" d="M616.5,432.71l10.78-2.54c-.34.78-.68,1.57-1,2.35l9.22,9.7c4.87-9.4,10.51-16.37,2.68-24.27C617.32,428,617.32,428,616.5,432.71Z"/><path class="cls-2" d="M358.24,444.8c2.2-2.6,5.92-5,6.31-7.84,1-7.27-2.48-13.08-12.28-16.94-.48,6.12-1.71,12.31-1.09,18.31C351.42,440.7,355.76,442.66,358.24,444.8Z"/><path class="cls-2" d="M618.15,418.22a4.25,4.25,0,0,0,3.3,2.11c7.59,0,15.43-14.33,11.37-21a1.72,1.72,0,0,0-.23-.32c-1.68-1.95-4.94-.56-5,2,0,1.08-.08,2.06-.15,3a6,6,0,0,1-4.07,5.39,3.08,3.08,0,0,1-.71.15l-7.86-10.85-2.35,1.16C614.32,406,616.07,412.17,618.15,418.22Z"/><path class="cls-2" d="M651.77,229.38c2.25-.87,4.08-2.8,6.73-4.73l-16.19-9.43c.84,6,1.54,11,2,14.31C647.64,229.53,650,230.09,651.77,229.38Z"/><path class="cls-2" d="M627.27,471.45,619,472.5a2.48,2.48,0,0,0-.18,4.9A12.75,12.75,0,0,0,628.86,476,2.45,2.45,0,0,0,627.27,471.45Z"/><path class="cls-2" d="M619.6,532.57c-7.68,2-16.23-.24-23.88,1.93-.56.84-.66,1.3-.54,1.59a2.46,2.46,0,0,0,2.63,1.37l24.39-3,0-.09A2.06,2.06,0,0,0,619.6,532.57Z"/><path class="cls-2" d="M602.52,317.49c-9.85,4.44-11,11.57-3.9,18.29C599.88,329.88,601.05,324.4,602.52,317.49Z"/><path class="cls-2" d="M744.88,503.65c2.51-1.9,4.13-5,6.11-7.61l-1.68-1.58-10.12,4.74c-.13.86-.26,1.73-.38,2.59C740.89,502.49,743.89,504.4,744.88,503.65Z"/><path class="cls-2" d="M249.12,646.32q2.55,2.91,5.21,5.74C252.57,650.17,250.83,648.25,249.12,646.32Z"/><path class="cls-2" d="M826.38,294.66A374.17,374.17,0,0,0,649.57,106.17l-1.28-.66-.18-.1c-1.63-.86-3.27-1.73-5-2.47q-2.85-1.31-5.7-2.58a1.94,1.94,0,0,0-.3-.13q-4.53-2.06-9.11-4A370.38,370.38,0,0,0,483,66.92c-3.62,0-7.24.06-10.85.16l1-25.66-7.34.89-7.27,25.41-1.47.09c-11.22.16-23.55.71-34,1.39L425.68,0,415.1,1.28,394.84,72.17c-19.58,3.4-36.59,9.7-36,14.7s18.7,7.06,38.58,5.67l22.62,39.54h0A313.7,313.7,0,0,0,169.18,431.27c-.08,3-.11,5.82-.11,8.53A313.18,313.18,0,0,0,236.5,634.35c-.83,0-1.67,0-2.5,0a115.72,115.72,0,0,0-50,11.27C109.85,536.46,96.45,386.47,158.6,266.35c-5.12,9.18-10,18.53-14.34,28.13-1.13,2.38-2.12,4.82-3.18,7.23S139,306.55,138,309l-2.92,7.35-2.7,7.45c-.44,1.24-.91,2.47-1.32,3.73l-1.23,3.76c-.8,2.52-1.68,5-2.42,7.55-1.48,5.07-3,10.13-4.27,15.27s-2.49,10.28-3.67,15.44c-.57,2.58-1,5.19-1.55,7.79l-.75,3.9c-.25,1.3-.44,2.61-.66,3.91L115.26,393l-1,7.88-.49,3.95-.39,4-.74,7.92-.52,7.94c-.08,1.33-.19,2.65-.24,4l-.13,4c-.08,2.66-.21,5.31-.24,8l.06,8c.06,5.31,0,10.64.4,15.94l.46,8c.18,2.66.25,5.32.59,8l1.73,15.88,2.53,15.78c.37,2.64,1,5.24,1.58,7.84l1.8,7.79c1.08,5.22,2.73,10.3,4.18,15.43L127,550.8l2.57,7.57,2.56,7.57.64,1.89c.23.63.49,1.24.73,1.86l1.46,3.72a360.43,360.43,0,0,0,27.89,57.45q5.93,9.87,12.43,19.35A116.64,116.64,0,1,0,345.15,786.3c3.68,1.49,7.38,2.9,11.11,4.26l15.14,5.12c5.11,1.53,10.25,2.94,15.37,4.41,1.29.35,2.55.77,3.86,1l3.89.9,7.79,1.8c5.17,1.31,10.44,2.14,15.68,3.09l7.87,1.41c2.64.37,5.28.68,7.92,1l7.93,1c1.33.15,2.64.38,4,.46l4,.31,8,.6,4,.3,2,.16c.67,0,1.33,0,2,0l16,.41H483v.05a373.13,373.13,0,0,0,343.42-518ZM306,216.4c-13.33,7.6-16.12,21.86-21.3,34.4-3.63,8.77-6.34,10.49-13.68,5.3,6-10.92,11.32-21.48,17.42-31.6,3.74-6.21,9.39-10.33,17.27-10.14C305.84,215.4,306.13,216.3,306,216.4Zm-58.18,79.52c2.8,5.89,5.86,11.46,8.06,17.35a9.3,9.3,0,0,1-1,7.48c-1.72,2.42-4.85,3.84-7.38,5.68l-1.7-2.35C248.71,314.74,238.68,303.86,247.79,295.92Zm22.79-68c-2,8.38-2.81,9.68-9.22,9.69Q265.88,232.69,270.58,228ZM208.37,560.63c2.4-5.37.29-10.22-1.48-15.38-2.76-8.08-5.09-16.31-7.66-24.45-7.21-22.89-7.59-45,5.59-66.38a194.48,194.48,0,0,0,14.73-29.83c3.08-7.67,4.33-16.07,6.83-25.9-5.95,1.14-9.44,2.23-13,2.35-3.19.1-6.43-.86-9.64-1.35,1.56-4.05,2.17-10.71,4.85-11.69,10.72-3.9,18.53-11.3,27.53-17.42,12.17-8.27,20.87-18.29,29-29.57,1.54-2.13,2-7.94.77-8.69-8.43-5.36-4.81-12-2.77-18.35,4.22,7,10.19,9.25,18.54,6.75,9.71-2.9,15.06-.84,19.84,8.08,2.89,5.38,4.13,12.33,8.31,16.19,6.73,6.19,9.75,12.77,10.18,21.71.32,6.62,3.09,13.09,3.84,19.73.81,7.26-.32,14.84,6.19,20.42.71.61-.61,3.23-.38,4.84.63,4.4.82,9.11,2.63,13,2.18,4.74,6.48,5.27,10.61,1.75a39.58,39.58,0,0,0,13.62-33.62c-.88-9.74,1.81-13.21,8.86-16.74a25.24,25.24,0,0,0,5.35-4c10.14-9.08,20.16-18.3,30.45-27.22,1.22-1.05,3.8-.67,5.76-.69,6.69-.07,13.38,0,19.78,0,2,3.15,3.72,6.8,6.3,9.68,6.6,7.4,12.66,14.77,6.15,27.88,6.64-.64,11.52-.07,15.45-1.72,6.05-2.55,9-.77,9.6,5,1.28,12.62,1.8,25.32,3.1,37.94.36,3.47,2.09,6.91,3.72,10.1,2.57,5,7.5,9.58,8.06,14.71,1.51,13.79,9.94,21,21.12,26.44,1.5.73,3.58.25,5.4.32-.1-1.85.12-3.78-.34-5.53-1.41-5.31-2.89-10.63-4.74-15.79a31.33,31.33,0,0,0-4.13-7c-5.3-7.55-15.93-9.26-19.07-20.06-2.43-8.37-2.71-22.09,2.48-28.18l16.7,9.15c.28.67.83,5.26,2.78,6,7.59,2.76,10.11,7.69,7.79,16.34,2.69-1.23,4-1.6,5.09-2.37,7.56-5.59,15.28-11,22.44-17.09a10.2,10.2,0,0,0,2.84-8C535.71,391,533.8,380,523.88,372.62A23.57,23.57,0,0,1,517,364c-1.53-3.25-3.57-8.71-2.1-10.47a51,51,0,0,1,15.44-12.23c.91-.47,4.44,4.11,7.36,7.5a2.55,2.55,0,0,0,1.16.77,14.3,14.3,0,0,0-5.55,3.71,17,17,0,0,0-2.8,8.31c0,.62,4.68,2.83,6.13,2.12,2.37-1.17,3.27-3.9,3.81-6.39,0,0,2.7-7.31,1-8a1.59,1.59,0,0,0-.33-.09,2.7,2.7,0,0,0,1-1.39c1.85-5.75,5.68-7.31,11.83-6.15,2,.37,4.57-1.93,6.69-3.29,2.63-1.68,4.82-4.55,7.64-5.35,11.64-3.29,19.89-9.45,21.83-22.2.24-1.54,1.59-3,2.64-4.31,11.21-14.08,5.45-35.82-11.09-42.25-1.55-.61-3.75-2.52-3.66-3.67.12-1.51,2-3.27,3.51-4.21,2.2-1.34,4.79-2,7.21-3,0-.77,0-1.53,0-2.3-3.1-.77-6.55-2.81-9.22-2.06-5.17,1.46-8.27-.75-8.88-4.74-.38-2.46,2.75-5.46,4.76-9l5.09,9.47c7-5.61,13.15-8.21,16.26,2.86.29,1,2.49,1.41,3.17,2.5,2.42,3.88,4.3,8.13,6.93,11.85,1.3,1.83,4.07,4.21,5.7,3.89,2.73-.54,5.08-3,9.05-5.66l-15.3-20.81c4.26-5,3.6-16.11,15.5-14.48.79.1,2.94-3.55,3-5.53.37-7.3.14-14.63.14-22l12.53,13.93c.73-.72,1.45-1.45,2.18-2.18-6.4-7.05-11.82-15.55-19.47-20.76s-17.76-7.34-26.78-10.81c2.59-10.93,4-11.9,15-10a6.87,6.87,0,0,1,1.06.27q13.17,6.12,25.68,13.5c5.49,4.41,11.24,8.55,16.76,12.93l1.17-1.49A299.35,299.35,0,0,1,782.85,439.8c0,2.6,0,5.35-.11,8.17a298.62,298.62,0,0,1-67.61,181.75c-2.45,3-5,5.93-7.51,8.82l0,0-.08.09c.74-.93,1.48-1.87,2.2-2.82,8.22-10.87,15.6-22.49,14.3-37.26-1.2-13.66-2.22-27.33-3.39-41-.06-.77-.92-1.46-1.09-2.26-1-4.44-2-8.88-2.69-13.37a44.16,44.16,0,0,1-.05-6.71l-3.26-.74c-2.32,7.58-4.35,15.26-7.06,22.69-1.43,3.94-3.44,9.95-6.25,10.64-5.68,1.39-13.29,4.21-16.06-1.44l6.53-19.78L658,544.24c-.31,6.83-1.38,11.2-3.22,15.22-2.61,5.68-7,6.75-12.72,4.17-1.37-.61-4.06.37-5.49,1.47-5.93,4.55-11.76,9.26-17.3,14.27-3.6,3.25-6.44,7.32-10,10.65-3.86,3.63-7.67,7.76-12.31,10-10.08,4.88-20.83,8.35-31,13.16-2.87,1.37-5.13,5.08-6.53,8.23-2.42,5.45-3.94,11.3-6.29,18.31,4.59,9.34,13.44,19.8,3,35.79,6.35,0,10.85.63,15.13-.1,21.32-3.65,40.28-14.31,60.61-20.94,7.76-2.53,11.17-.58,13.34,7.16.67,2.35,1.8,5.16,3.63,6.5,6.4,4.66,17.3,5.1,26.06,2.17h0a299.77,299.77,0,0,1-334.32,33.59,117,117,0,0,0-84.22-67.39A299.22,299.22,0,0,1,208.37,560.63Zm25.63,297A106.67,106.67,0,0,1,181.1,658.4c2.84-1.63,5.76-3.14,8.76-4.5a106.58,106.58,0,0,1,55.36-9c1,.1,2,.22,3,.36.31.35.61.7.93,1.05l-.91-1.05A105.45,105.45,0,0,1,265.15,649l.3.09c1.28.4,2.55.82,3.81,1.27a107,107,0,0,1,55.07,44.08c.77,1.21,1.51,2.43,2.22,3.67h0a.08.08,0,0,0,0,0A106.6,106.6,0,0,1,334,713.91l.09.26c.32.84.62,1.69.91,2.54a107.06,107.06,0,0,1,3.43,55.93c-.68,3.33-1.53,6.59-2.52,9.8A106.8,106.8,0,0,1,234,857.66Zm232.07-55.39-1.95-.06-1.94-.15-3.87-.3-7.76-.59-3.88-.29c-1.29-.08-2.57-.3-3.86-.45l-7.72-1c-2.57-.34-5.14-.64-7.71-1l-7.66-1.37c-5.1-.92-10.23-1.73-15.25-3l-7.58-1.75-3.79-.88c-1.27-.27-2.5-.69-3.75-1-5-1.44-10-2.8-15-4.29l-14.74-5q-6-2.17-11.88-4.57a117,117,0,0,0-.59-53.66A313.71,313.71,0,0,0,796.73,448.33c.08-2.94.12-5.81.12-8.53A314.07,314.07,0,0,0,437,129.11h0L425.41,88.69c10.81-1.92,23.57-4.47,34.86-7.11l13,22.71,7.34-.89-7.23-25.15c1.58-.43,3.06-.86,4.45-1.29,1.71,0,3.42,0,5.13,0A360.57,360.57,0,0,1,627,106.77q5.85,2.76,11.74,5.39c.58.25,1.15.52,1.72.8l.1.05c.56.27,1.11.56,1.67.85l3.48,1.75,5.42,2.73A365.21,365.21,0,0,1,813.19,289.77c.3.66.61,1.32.9,2q2.67,6,5.13,12l2.72,6.89v0c1,2.64,2,5.28,2.93,7.94l.8,2.37,2.49,7.36a370.9,370.9,0,0,1,13.88,60.57l1,7.72.49,3.86.22,1.8c0,.36.08.73.11,1.1s0,.64.07,1l1.18,15.52c.13,1.29.12,2.59.16,3.88l.1,3.89.2,7.78.1,3.89c0,1.29-.06,2.59-.08,3.89l-.2,7.77A377.64,377.64,0,0,1,840,504c-.22,1.28-.46,2.55-.71,3.82q-.94,5-2,10c-.08.37-.16.75-.25,1.12s-.1.51-.17.76q-.41,1.83-.84,3.66c-.12.48-.23,1-.34,1.44l-.66,2.65a.32.32,0,0,1,0,.14.42.42,0,0,1,0,.16.29.29,0,0,1,0,.09c0,.1,0,.19-.07.29h0l-.84,3.28a369.8,369.8,0,0,1-16.27,48.18c-.46,1.11-.93,2.22-1.41,3.32q-1.44,3.36-2.94,6.67l-.64,1.38q-1.25,2.7-2.52,5.39l-1.26,2.57c-.39.82-.8,1.64-1.2,2.46A365.32,365.32,0,0,1,643.87,765c-1.26.63-2.53,1.25-3.8,1.86-.94.46-1.89.91-2.84,1.35-.73.36-1.45.69-2.18,1l-.2.09c-2,.9-3.89,1.79-5.85,2.64l-3.56,1.55c-1.19.52-2.38,1-3.58,1.51l-3.6,1.48c-2.4,1-4.82,1.91-7.24,2.83-1.16.45-2.32.88-3.47,1.3l-1.79.65-1.45.52c-.2.07-.39.15-.59.21l-7.36,2.49-2.07.7-.08,0-.08,0q-3.25,1.05-6.52,2l-.14,0-10.78,3.07-.17.05c-1.58.42-3.16.83-4.75,1.23h0a1,1,0,0,1-.24,0l-12.65,2.94-.61.14-.13,0-3.25.67-.65.12a.07.07,0,0,1-.06,0l-2.93.52-7.66,1.37a379,379,0,0,1-61.94,5.11Z"/><path class="cls-2" d="M234,672.08a78.48,78.48,0,0,0-26.29,4.51,76.35,76.35,0,0,0-9.23,4,78.89,78.89,0,1,0,112,89.76,79.83,79.83,0,0,0,2.4-19.33A79,79,0,0,0,234,672.08Zm70.7,83.71a68.65,68.65,0,0,1-1.52,10.61,70.88,70.88,0,1,1-99.3-79.59,69.2,69.2,0,0,1,9.58-3.69A70.88,70.88,0,0,1,304.87,751C304.87,752.6,304.82,754.2,304.7,755.79Z"/><path class="cls-2" d="M30,599.92a30,30,0,1,0,30,30A30,30,0,0,0,30,599.92Zm0,50a20,20,0,1,1,20-20A20,20,0,0,1,30,650Z"/></g></g></g></svg>