<svg xmlns="http://www.w3.org/2000/svg" viewBox="0 0 129.21 194.6"><defs><style>.cls-1{fill:#e8e9ef;}.cls-2{fill:#72c8f0;}</style></defs><g id="Layer_2" data-name="Layer 2"><g id="Final"><path class="cls-1" d="M60.74,194.6l-36-21C2.51,160.56.5,163.06.5,131.54L0,41.8,36.37,63.06c24.37,14.25,24.37,14.25,24.26,42l0,6.76c0,7.5-2.44,13.05-7,15.65s-10.54,1.93-17-1.81l-.15-.1L16.94,113.94l.16,27.31a16.91,16.91,0,0,0,7.55,13.09l36,21ZM16.84,94.71l19.74,11.73.05,0c2,1.16,3.85,1.36,5.26.56s2.2-2.54,2.18-4.87l0-6.77a16.94,16.94,0,0,0-7.56-13.09L16.71,70.73Z"/><path class="cls-1" d="M112.5,51.56l-.38,89.69a11.72,11.72,0,0,1-.28,2.44c-.89,4.19-3.82,8.63-7.28,10.65l-36,21-.12,19.22,36-21c2.77-1.62,5.21-3,7.39-4.23,15.34-8.69,16.88-10.2,16.88-37.8l.49-89.74Z"/><path class="cls-2" d="M103.35,51.56v85.59a16.41,16.41,0,0,1-8.09,14.09l-22.41,13.1a16.32,16.32,0,0,1-16.47,0L34,151.24a16.38,16.38,0,0,1-8.08-14.09V124.37l14.62,8.68v4.1a1.69,1.69,0,0,0,.84,1.46l22.42,13.11a1.72,1.72,0,0,0,1.7,0l22.42-13.11a1.69,1.69,0,0,0,.84-1.46V43Z"/><polygon class="cls-2" points="40.49 42.98 40.49 57.11 28.45 50.04 40.49 42.98"/><polygon class="cls-1" points="127.17 35.29 107.92 46.59 65.25 21.53 22.57 46.59 3.33 35.29 65.25 0 127.17 35.29"/></g></g></svg>