<svg xmlns="http://www.w3.org/2000/svg" xmlns:xlink="http://www.w3.org/1999/xlink" viewBox="0 0 1922 923.6"><defs><style>.cls-1{filter:url(#luminosity-noclip);}.cls-2{mask:url(#mask);}.cls-3{opacity:0.5;}.cls-4{fill:none;stroke:#71c8f0;stroke-miterlimit:10;stroke-width:2px;}</style><filter id="luminosity-noclip" x="0" y="0" width="1922" height="1081" filterUnits="userSpaceOnUse" color-interpolation-filters="sRGB"><feFlood flood-color="#fff" result="bg"/><feBlend in="SourceGraphic" in2="bg"/></filter><mask id="mask" x="0" y="0" width="1922" height="1081" maskUnits="userSpaceOnUse"><path class="cls-1" d="M1920,604.05v477H1V374.48l11.45-8.59c78.2-58.71,159.07-119.42,258.6-164.25A804.84,804.84,0,0,1,438,147.41c65.85-13.84,135.11-20.57,211.71-20.57s145.87,6.73,211.72,20.57a804.84,804.84,0,0,1,166.9,54.23c99.53,44.83,180.4,105.54,258.6,164.25C1442.69,482.86,1603.78,603.79,1920,604.05Z"/></mask></defs><title>Grid 1</title><g id="Layer_2" data-name="Layer 2"><g id="Homepage"><g class="cls-2"><g class="cls-3"><line class="cls-4" x1="1" y1="1" x2="1" y2="923"/><line class="cls-4" x1="77.8" y1="1" x2="77.8" y2="923"/><line class="cls-4" x1="154.6" y1="1" x2="154.6" y2="923"/><line class="cls-4" x1="231.4" y1="1" x2="231.4" y2="923"/><line class="cls-4" x1="308.2" y1="1" x2="308.2" y2="923"/><line class="cls-4" x1="385" y1="1" x2="385" y2="923"/><line class="cls-4" x1="461.8" y1="1" x2="461.8" y2="923"/><line class="cls-4" x1="538.6" y1="1" x2="538.6" y2="923"/><line class="cls-4" x1="615.4" y1="1" x2="615.4" y2="923"/><line class="cls-4" x1="692.2" y1="1" x2="692.2" y2="923"/><line class="cls-4" x1="769" y1="1" x2="769" y2="923"/><line class="cls-4" x1="845.8" y1="1" x2="845.8" y2="923"/><line class="cls-4" x1="922.6" y1="1" x2="922.6" y2="923"/><line class="cls-4" x1="999.4" y1="1" x2="999.4" y2="923"/><line class="cls-4" x1="1076.2" y1="1" x2="1076.2" y2="923"/><line class="cls-4" x1="1153" y1="1" x2="1153" y2="923"/><line class="cls-4" x1="1229.8" y1="1" x2="1229.8" y2="923"/><line class="cls-4" x1="1306.6" y1="1" x2="1306.6" y2="923"/><line class="cls-4" x1="1383.4" y1="1" x2="1383.4" y2="923"/><line class="cls-4" x1="1460.2" y1="1" x2="1460.2" y2="923"/><line class="cls-4" x1="1537" y1="1" x2="1537" y2="923"/><line class="cls-4" x1="1613.8" y1="1" x2="1613.8" y2="923"/><line class="cls-4" x1="1690.6" y1="1" x2="1690.6" y2="923"/><line class="cls-4" x1="1767.4" y1="1" x2="1767.4" y2="923"/><line class="cls-4" x1="1844.2" y1="1" x2="1844.2" y2="923"/><line class="cls-4" x1="1921" y1="1" x2="1921" y2="923"/><line class="cls-4" x1="1921" y1="1" x2="1" y2="1"/><line class="cls-4" x1="1921" y1="77.8" x2="1" y2="77.8"/><line class="cls-4" x1="1921" y1="154.6" x2="1" y2="154.6"/><line class="cls-4" x1="1921" y1="231.4" x2="1" y2="231.4"/><line class="cls-4" x1="1921" y1="308.2" x2="1" y2="308.2"/><line class="cls-4" x1="1921" y1="385" x2="1" y2="385"/><line class="cls-4" x1="1921" y1="461.8" x2="1" y2="461.8"/><line class="cls-4" x1="1921" y1="538.6" x2="1" y2="538.6"/><line class="cls-4" x1="1921" y1="615.4" x2="1" y2="615.4"/><line class="cls-4" x1="1921" y1="692.2" x2="1" y2="692.2"/><line class="cls-4" x1="1921" y1="769" x2="1" y2="769"/><line class="cls-4" x1="1921" y1="845.8" x2="1" y2="845.8"/><line class="cls-4" x1="1921" y1="922.6" x2="1" y2="922.6"/></g></g></g></g></svg>